<?xml version="1.0" standalone="no"?>
<!DOCTYPE svg PUBLIC "-//W3C//DTD SVG 20010904//EN"
 "http://www.w3.org/TR/2001/REC-SVG-20010904/DTD/svg10.dtd">
<svg version="1.0" xmlns="http://www.w3.org/2000/svg"
 width="1080.000000pt" height="1080.000000pt" viewBox="0 0 1080.000000 1080.000000"
 preserveAspectRatio="xMidYMid meet">
<metadata>
Created by potrace 1.11, written by Peter Selinger 2001-2013
</metadata>
<g transform="translate(0.000000,1080.000000) scale(0.100000,-0.100000)"
fill="#000000" stroke="none">
<path d="M4755 10460 c-62 -31 -65 -48 -65 -426 0 -224 4 -352 11 -373 21 -60
110 -80 174 -38 19 12 37 31 41 42 4 11 8 182 9 380 1 397 0 405 -60 425 -38
12 -71 9 -110 -10z"/>
<path d="M7919 9914 c-3 -7 -71 -61 -194 -154 -44 -33 -224 -216 -225 -227 0
-7 -3 -13 -7 -13 -5 0 -20 -19 -35 -43 -81 -130 -85 -157 -34 -211 30 -33 38
-36 88 -36 61 0 84 15 118 78 46 82 127 173 235 260 39 31 72 59 75 62 3 3 28
21 55 40 28 19 58 44 67 55 37 44 34 113 -7 161 -19 22 -34 28 -78 32 -30 2
-56 0 -58 -4z"/>
<path d="M2374 9669 c-40 -20 -54 -61 -49 -141 8 -143 45 -276 128 -458 22
-49 40 -96 42 -110 0 -3 3 -9 6 -15 19 -31 38 -108 49 -200 7 -62 12 -73 41
-97 58 -49 148 -28 184 41 28 56 6 181 -65 366 -46 121 -53 139 -55 145 -1 3
-5 12 -8 20 -51 118 -83 235 -93 335 -7 79 -11 89 -43 108 -32 19 -103 22
-137 6z"/>
<path d="M4990 8734 c-252 -17 -350 -26 -450 -44 -30 -5 -71 -12 -90 -15 -34
-4 -55 -9 -102 -21 -13 -3 -39 -8 -58 -11 -81 -13 -333 -95 -435 -143 -42 -20
-71 -30 -81 -29 -4 0 -10 -3 -13 -8 -3 -5 -40 -27 -81 -49 -80 -43 -117 -64
-134 -76 -253 -177 -420 -342 -631 -623 -17 -22 -44 -60 -60 -85 -17 -25 -36
-51 -42 -58 -7 -7 -13 -18 -13 -23 0 -5 -5 -15 -10 -22 -16 -19 -57 -82 -83
-129 -13 -24 -35 -61 -47 -83 -52 -90 -100 -178 -100 -184 0 -3 -8 -22 -19
-41 -22 -41 -99 -246 -106 -280 -2 -12 -9 -37 -15 -55 -6 -18 -13 -42 -15 -54
-3 -11 -7 -31 -10 -43 -3 -13 -8 -39 -11 -58 -8 -46 -12 -65 -14 -65 -3 0 -10
-43 -15 -105 -4 -36 -8 -72 -10 -80 -9 -33 -19 -233 -17 -365 1 -200 13 -344
46 -570 8 -57 56 -290 71 -344 8 -30 12 -58 9 -62 -2 -4 0 -10 5 -13 5 -3 12
-22 15 -41 4 -20 18 -70 32 -113 15 -42 27 -81 28 -87 2 -5 8 -21 13 -35 6
-14 23 -56 39 -95 15 -38 41 -92 57 -120 16 -27 28 -51 26 -52 -2 -1 28 -50
67 -110 77 -117 155 -215 217 -272 22 -20 49 -45 61 -56 11 -12 41 -36 66 -55
25 -19 47 -38 48 -42 2 -5 10 -8 18 -8 8 0 17 -7 20 -15 4 -8 12 -15 18 -15 7
0 21 -8 32 -18 10 -10 26 -21 34 -25 48 -21 310 -189 310 -198 0 -5 6 -9 14
-9 8 0 21 -6 28 -13 7 -6 31 -25 53 -41 60 -45 142 -130 179 -189 52 -82 186
-374 175 -380 -2 -1 -20 -11 -39 -21 -19 -11 -44 -24 -55 -30 -11 -6 -41 -33
-66 -60 -126 -131 -93 -337 70 -441 35 -22 42 -30 36 -48 -3 -12 -7 -26 -9
-32 -2 -5 -6 -17 -9 -25 -9 -21 -16 -65 -24 -136 -7 -76 10 -151 49 -218 31
-53 30 -68 -11 -113 -16 -18 -73 -138 -85 -180 -51 -173 -15 -310 104 -395
l38 -26 -24 -83 c-31 -105 -34 -309 -7 -379 4 -8 7 -17 8 -20 6 -27 29 -86 34
-90 3 -3 15 -22 26 -44 19 -36 115 -142 160 -176 31 -24 144 -77 210 -98 55
-18 101 -26 210 -37 53 -5 238 -5 295 -1 88 8 176 16 235 23 88 9 452 10 510
0 53 -8 499 -12 512 -4 5 3 26 8 47 11 32 5 107 24 161 40 6 2 12 3 15 3 3 0
24 12 47 26 24 15 47 27 53 27 5 0 49 39 98 88 64 63 97 105 119 152 46 94 58
200 32 278 -16 47 -93 129 -130 137 -16 4 -31 10 -34 15 -3 4 11 46 31 92 68
158 95 319 69 418 -18 67 -18 71 8 98 24 26 73 100 76 115 2 14 5 24 20 77 9
31 12 77 8 145 -6 102 -25 172 -72 273 -14 29 -25 54 -25 56 0 2 15 6 34 9 60
10 218 92 263 137 122 122 75 283 -127 439 l-25 19 19 53 c39 111 118 248 186
323 16 17 38 42 50 56 43 50 218 225 324 324 260 242 478 475 523 561 9 16 22
35 29 43 8 7 14 17 14 22 0 5 6 15 13 22 27 30 158 284 205 398 49 120 112
322 129 409 2 14 6 28 8 31 2 4 7 22 10 41 4 19 11 57 16 84 5 28 11 61 13 75
13 86 27 194 33 250 9 92 9 579 0 675 -4 44 -10 105 -13 135 -9 99 -14 135
-39 275 -22 128 -27 154 -45 225 -6 25 -12 54 -14 65 -13 72 -91 326 -138 445
-40 102 -130 279 -184 363 -192 296 -473 530 -764 637 -36 13 -76 28 -90 33
-14 6 -29 11 -35 13 -24 6 -142 35 -160 39 -38 9 -260 46 -300 50 -22 3 -85
10 -140 16 -55 6 -118 12 -140 14 -22 2 -67 6 -100 10 -314 29 -953 39 -1265
19z"/>
<path d="M360 6676 c-28 -20 -39 -43 -45 -94 -5 -33 53 -100 257 -304 161
-162 226 -233 268 -298 36 -56 57 -66 115 -60 64 7 118 77 105 137 -15 66
-130 199 -371 429 -35 33 -84 85 -109 114 -88 103 -85 101 -140 99 -32 -2 -61
-10 -80 -23z"/>
<path d="M9429 6599 c-6 -3 -37 -7 -69 -8 -33 -1 -69 -4 -81 -6 -11 -2 -67 -7
-122 -10 -56 -4 -117 -8 -135 -10 -67 -6 -109 -81 -81 -146 15 -39 54 -79 77
-80 58 -5 268 7 327 17 17 3 127 7 245 7 180 2 227 -1 291 -17 71 -17 78 -17
107 -2 18 9 32 23 32 31 0 8 5 15 11 15 6 0 9 6 6 13 -3 8 -2 20 3 27 12 20
-19 98 -48 119 -53 37 -164 54 -365 55 -104 1 -193 -2 -198 -5z"/>
<path d="M9144 4281 c-32 -14 -66 -67 -70 -109 -4 -43 11 -65 134 -197 137
-147 226 -317 233 -445 5 -86 38 -120 117 -120 44 0 99 31 111 63 35 92 -44
335 -165 507 -43 61 -42 60 -117 144 -136 153 -141 157 -182 162 -22 2 -50 0
-61 -5z"/>
<path d="M1802 3964 c-61 -30 -189 -148 -264 -242 -29 -36 -67 -80 -85 -97
-17 -16 -50 -47 -72 -68 -34 -32 -39 -43 -36 -73 7 -76 46 -124 107 -132 50
-6 137 65 252 203 72 87 160 177 181 185 11 4 28 4 37 -1 21 -12 78 -19 78
-10 0 3 10 11 22 16 29 14 58 55 64 93 7 44 -17 84 -72 121 -63 41 -136 43
-212 5z"/>
</g>
</svg>
